<svg width="69" height="48" viewBox="0 0 69 48" fill="none" xmlns="http://www.w3.org/2000/svg">
<g clip-path="url(#clip0_4_7)">
<path d="M68.16 23.91C68.1001 32.4078 64.673 40.5351 58.63 46.51C57.52 47.62 56.34 48.28 55 47.09C53.66 45.9 54.24 44.66 55.31 43.51C66.51 31.51 66.5 16.02 55.31 4.18C54.31 3.07 53.75 1.91 54.91 0.740003C56.07 -0.429996 57.41 -0.0199955 58.55 1.12C61.5865 4.08907 64.0005 7.63388 65.6505 11.547C67.3006 15.4602 68.1537 19.6632 68.16 23.91Z" fill="#262626"/>
<path d="M58.62 23.9C58.6204 26.9255 58.0113 29.92 56.8293 32.705C55.6472 35.49 53.9164 38.0084 51.74 40.11C49.91 41.93 48.58 41.69 47.61 39.58C47.01 38.29 47.9 37.64 48.61 36.94C51.3972 34.2824 53.2525 30.7964 53.9 27C54.4313 24.1506 54.2531 21.2143 53.3811 18.4501C52.5091 15.6858 50.9701 13.1787 48.9 11.15C48.4913 10.8059 48.1618 10.3775 47.934 9.89425C47.7062 9.41099 47.5855 8.88424 47.58 8.35C47.5768 7.93072 47.711 7.52193 47.962 7.18606C48.213 6.8502 48.567 6.60573 48.97 6.49C49.4532 6.40792 49.9497 6.45746 50.4072 6.63342C50.8647 6.80938 51.2663 7.10526 51.57 7.49C53.7974 9.60356 55.5712 12.1485 56.7832 14.9697C57.9953 17.791 58.6202 20.8294 58.62 23.9Z" fill="#262626"/>
<path d="M48.89 23.18C48.9624 25.0656 48.6444 26.9457 47.9561 28.7027C47.2677 30.4596 46.2239 32.0554 44.89 33.39C43.81 34.5 42.49 35.26 41.29 33.93C40.29 32.85 40.6 31.46 41.67 30.29C45.4 26.21 45.45 21.4 41.73 17.5C40.59 16.3 40.27 14.94 41.28 13.86C42.45 12.6 43.95 13.56 44.89 14.43C46.1155 15.5408 47.1021 16.8894 47.7897 18.3937C48.4774 19.898 48.8518 21.5264 48.89 23.18Z" fill="#262626"/>
<path d="M33.4 23.87C33.4 30.87 33.4 37.87 33.4 44.87C33.4 45.73 33.67 46.78 32.59 47.24C31.51 47.7 31.02 46.85 30.36 46.39C26.66 43.88 23 41.32 19.28 38.84C18.8046 38.5715 18.4157 38.173 18.1589 37.6912C17.9021 37.2094 17.788 36.6643 17.83 36.12C17.89 28.0133 17.89 19.91 17.83 11.81C17.768 11.2329 17.8714 10.65 18.1281 10.1295C18.3849 9.60888 18.7843 9.17207 19.28 8.87C23.12 6.32 26.9 3.68 30.71 1.09C31.27 0.699995 31.83 0.159997 32.61 0.509997C33.39 0.859997 33.4 1.73 33.4 2.51C33.4 9.63 33.39 16.74 33.4 23.87Z" fill="#262626"/>
<path d="M12 10.4H12.18C12.4505 10.4 12.7184 10.4533 12.9683 10.5568C13.2183 10.6603 13.4454 10.8121 13.6366 11.0034C13.8279 11.1946 13.9797 11.4217 14.0832 11.6717C14.1867 11.9216 14.24 12.1895 14.24 12.46V35.39C14.24 35.6605 14.1867 35.9284 14.0832 36.1783C13.9797 36.4283 13.8279 36.6554 13.6366 36.8466C13.4454 37.0379 13.2183 37.1897 12.9683 37.2932C12.7184 37.3967 12.4505 37.45 12.18 37.45H12C8.8174 37.45 5.76516 36.1857 3.51472 33.9353C1.26428 31.6848 0 28.6326 0 25.45L0 22.39C0 19.2074 1.26428 16.1552 3.51472 13.9047C5.76516 11.6543 8.8174 10.39 12 10.39V10.4Z" fill="#262626"/>
</g>
<defs>
<clipPath id="clip0_4_7">
<rect width="68.16" height="47.73" fill="white"/>
</clipPath>
</defs>
</svg>
