<svg width="82" height="83" viewBox="0 0 82 83" fill="none" xmlns="http://www.w3.org/2000/svg">
<path d="M77.06 23.1302C73.5373 16.2647 68.1425 10.5371 61.4999 6.61018C55.2291 2.9027 48.0748 0.954204 40.79 0.970044C38.1416 0.967957 35.4993 1.22249 32.9 1.73005C22.4615 3.78729 13.2414 9.84558 7.21003 18.6102C2.52011 25.3956 0.0149341 33.4516 0.0299746 41.7C0.0290835 50.3175 2.76015 58.7136 7.83063 65.6815C12.9011 72.6493 20.05 77.8303 28.25 80.4801C32.3003 81.7958 36.5313 82.4706 40.79 82.4801C46.4666 82.4858 52.0816 81.3036 57.2741 79.0096C62.4666 76.7156 67.1216 73.3605 70.94 69.16C72.8378 67.098 74.5137 64.8423 75.94 62.43C77.7159 59.423 79.0972 56.2 80.05 52.8402C81.0613 49.2304 81.5727 45.4988 81.57 41.7501C81.5759 35.2722 80.0294 28.8874 77.06 23.1302Z" fill="#FFF9C1"/>
</svg>
