<svg width="93" height="94" viewBox="0 0 93 94" fill="none" xmlns="http://www.w3.org/2000/svg">
<path d="M60.9399 33.8701L59.5801 32.6101L46.0601 1.89989L33.5801 32.6101L32.49 33.8701L1.77002 47.3601L32.49 59.8401L33.5601 61.28L47.05 92.01L59.53 61.28L60.9102 59.8401L91.6201 46.3601L60.9399 33.8701ZM46.73 57.3601C45.3621 57.3614 44.0073 57.0931 42.7432 56.5705C41.479 56.048 40.3303 55.2812 39.3625 54.3144C38.3948 53.3476 37.6273 52.1997 37.1035 50.936C36.5797 49.6724 36.3101 48.3178 36.3101 46.9499C36.3101 44.1864 37.4079 41.5361 39.3621 39.582C41.3162 37.6279 43.9664 36.53 46.73 36.53C49.4927 36.5327 52.1417 37.6314 54.0952 39.5849C56.0488 41.5385 57.1475 44.1872 57.1501 46.9499C57.1475 49.7118 56.0483 52.3595 54.0945 54.3115C52.1406 56.2635 49.4918 57.3601 46.73 57.3601Z" fill="#E1F5FE" stroke="#212121" stroke-miterlimit="10"/>
</svg>
