<svg width="93" height="94" viewBox="0 0 93 94" fill="none" xmlns="http://www.w3.org/2000/svg">
<path d="M60.4199 33.6699L59.0601 32.4099L45.5698 1.68994L33.0898 32.4099L32 33.6699L1.27979 47.1599L32 59.64L33.0698 61.08L46.5601 91.7999L59.04 61.08L60.4199 59.64L91.1299 46.15L60.4199 33.6699ZM46.21 57.16C44.8421 57.1613 43.4873 56.893 42.2231 56.3705C40.959 55.8479 39.81 55.0812 38.8423 54.1144C37.8746 53.1476 37.1073 51.9996 36.5835 50.736C36.0597 49.4723 35.79 48.1179 35.79 46.75C35.7887 45.3813 36.0574 44.0257 36.5806 42.7609C37.1038 41.4961 37.871 40.3469 38.8389 39.379C39.8067 38.4112 40.9559 37.6437 42.2207 37.1205C43.4855 36.5973 44.8412 36.3286 46.21 36.33C48.9735 36.33 51.624 37.4278 53.5781 39.382C55.5323 41.3361 56.6299 43.9864 56.6299 46.75C56.6272 49.5118 55.5281 52.1595 53.5742 54.1115C51.6204 56.0634 48.9718 57.16 46.21 57.16Z" fill="black" stroke="#212121" stroke-miterlimit="10"/>
</svg>
