<svg width="82" height="82" viewBox="0 0 82 82" fill="none" xmlns="http://www.w3.org/2000/svg">
<path d="M77.2232 22.1702C73.7005 15.3047 68.3057 9.57711 61.6632 5.65018C55.3923 1.94271 48.238 -0.00579283 40.9532 0.0100464C38.3048 0.00795993 35.6625 0.262492 33.0633 0.770056C22.6247 2.82729 13.4046 8.88558 7.37325 17.6502C2.68334 24.4356 0.178157 32.4916 0.193198 40.74C0.192307 49.3575 2.92337 57.7536 7.99386 64.7215C13.0643 71.6894 20.2132 76.8703 28.4132 79.5201C32.4635 80.8358 36.6946 81.5106 40.9532 81.5201C46.6298 81.5258 52.2449 80.3436 57.4373 78.0496C62.6298 75.7556 67.2849 72.4005 71.1032 68.2C73.0011 66.138 74.6769 63.8823 76.1032 61.47C77.8791 58.463 79.2604 55.24 80.2132 51.8802C81.2245 48.2704 81.736 44.5388 81.7332 40.7901C81.7391 34.3122 80.1926 27.9274 77.2232 22.1702Z" fill="#FFF9C1"/>
</svg>
