<svg width="145" height="145" viewBox="0 0 145 145" fill="none" xmlns="http://www.w3.org/2000/svg">
<g clip-path="url(#clip0_4_2)">
<path d="M144.935 72.43C144.944 80.5378 143.591 88.5896 140.935 96.25C129.315 129.63 93.935 151.91 55.065 142.84C42.0901 139.781 30.2363 133.136 20.8562 123.664C11.4761 114.192 4.9474 102.274 2.015 89.2699C-8.645 41.9399 27.015 -1.99372e-05 72.555 -1.99372e-05C89.3343 -0.0404012 105.602 5.77353 118.555 16.4399L123.975 9.94993L129.665 27.7999L132.115 35.5L122.005 34.17L105.535 32.01L112.165 24.0699C101.162 15.0419 87.3972 10.0583 73.165 9.94993C64.9263 9.88536 56.7557 11.4463 49.1209 14.5432C41.4861 17.6401 34.5371 22.2123 28.6714 27.998C22.8058 33.7838 18.1387 40.6695 14.9374 48.2611C11.7361 55.8527 10.0634 64.0011 10.015 72.24C9.99132 80.4619 11.5901 88.6077 14.7198 96.2107C17.8495 103.814 22.4486 110.724 28.2535 116.547C34.0585 122.37 40.9553 126.99 48.5487 130.142C56.1422 133.295 64.2831 134.919 72.505 134.92C87.5552 134.918 102.099 129.486 113.465 119.621C124.831 109.755 132.256 96.1202 134.375 81.2199C134.781 78.3076 134.985 75.3705 134.985 72.43C134.99 67.2373 134.348 62.0642 133.075 57.0299C132.776 55.9361 132.862 54.7725 133.319 53.7346C133.776 52.6967 134.576 51.8476 135.585 51.3299L135.905 51.19C136.703 50.8809 137.563 50.7611 138.415 50.8399C139.436 50.9501 140.399 51.372 141.171 52.0483C141.944 52.7246 142.49 53.6225 142.735 54.62C144.202 60.4429 144.941 66.4252 144.935 72.43Z" fill="#212121"/>
<path d="M88.015 98.99C86.7172 98.9784 85.4769 98.4535 84.565 97.53C78.005 91.2183 70.0653 86.521 61.375 83.81C61.635 90.57 61.755 94.32 61.755 95.06C61.7674 95.6856 61.6503 96.307 61.4111 96.8852C61.1719 97.4634 60.8157 97.986 60.365 98.42C59.9087 98.8738 59.3649 99.2301 58.7667 99.4673C58.1685 99.7045 57.5283 99.8177 56.885 99.8C56.2416 99.8189 55.601 99.7062 55.0027 99.4689C54.4043 99.2317 53.8606 98.8747 53.405 98.42C52.9548 97.9856 52.5989 97.463 52.3598 96.8849C52.1206 96.3068 52.0032 95.6855 52.015 95.06C52.015 93.32 52.015 90.71 52.085 87.24C52.155 83.77 52.155 81.17 52.155 79.43L52.225 51.33C52.2192 49.8485 52.6967 48.4056 53.585 47.22C54.1365 46.4565 54.8835 45.8557 55.7476 45.4809C56.6116 45.106 57.5607 44.971 58.495 45.09C64.135 45.51 67.025 45.7334 67.165 45.76C70.0434 46.0457 72.8493 46.8343 75.455 48.09C85.3683 53.0833 90.3217 59.27 90.315 66.65C90.3405 69.6343 89.2284 72.5163 87.205 74.71C84.5949 77.3836 81.3917 79.4049 77.855 80.61C84.0017 84.05 88.6317 87.5567 91.745 91.13C92.5423 91.9634 92.9958 93.0668 93.015 94.22C93.0196 94.8509 92.8921 95.4758 92.6407 96.0545C92.3892 96.6332 92.0194 97.1528 91.555 97.58C91.0904 98.0414 90.5373 98.4041 89.929 98.6464C89.3206 98.8887 88.6696 99.0056 88.015 98.99ZM65.695 55.19L61.615 54.91V73.36C62.195 73.36 62.705 73.36 63.155 73.36C68.835 73.36 73.0483 72.65 75.795 71.23C77.0004 70.61 78.0978 69.7996 79.045 68.83C80.045 67.83 80.525 67.08 80.525 66.57C80.525 63.97 78.8783 61.4633 75.585 59.05C72.6993 56.904 69.291 55.571 65.715 55.19H65.695Z" fill="#212121"/>
</g>
<defs>
<clipPath id="clip0_4_2">
<rect width="144.87" height="144.87" fill="white" transform="translate(0.0650024)"/>
</clipPath>
</defs>
</svg>
