<svg width="73" height="52" viewBox="0 0 73 52" fill="none" xmlns="http://www.w3.org/2000/svg">
<g clip-path="url(#clip0_5_22)">
<path d="M70.16 25.91C70.1001 34.4078 66.673 42.5351 60.63 48.51C59.52 49.62 58.34 50.28 57 49.09C55.66 47.9 56.24 46.66 57.31 45.51C68.51 33.51 68.5 18.02 57.31 6.18C56.31 5.07 55.75 3.91 56.91 2.74C58.07 1.57 59.41 1.98 60.55 3.12C63.5865 6.08907 66.0005 9.63388 67.6505 13.547C69.3006 17.4602 70.1537 21.6632 70.16 25.91Z" fill="#212121"/>
<path d="M60.62 25.9C60.6203 28.9255 60.0113 31.92 58.8293 34.705C57.6472 37.49 55.9164 40.0084 53.74 42.11C51.91 43.93 50.58 43.69 49.61 41.58C49.01 40.29 49.9 39.64 50.61 38.94C53.3972 36.2824 55.2525 32.7964 55.9 29C56.4312 26.1506 56.2531 23.2143 55.3811 20.4501C54.5091 17.6858 52.9701 15.1787 50.9 13.15C50.4913 12.8059 50.1618 12.3775 49.934 11.8942C49.7062 11.411 49.5855 10.8842 49.58 10.35C49.5768 9.93072 49.711 9.52193 49.962 9.18606C50.213 8.8502 50.567 8.60573 50.97 8.49C51.4532 8.40792 51.9497 8.45746 52.4072 8.63342C52.8646 8.80938 53.2663 9.10526 53.57 9.49C55.7974 11.6036 57.5712 14.1485 58.7832 16.9697C59.9952 19.791 60.6202 22.8294 60.62 25.9Z" fill="#212121"/>
<path d="M50.89 25.18C50.9624 27.0656 50.6444 28.9457 49.9561 30.7027C49.2677 32.4596 48.2239 34.0554 46.89 35.39C45.81 36.5 44.49 37.26 43.29 35.93C42.29 34.85 42.6 33.46 43.67 32.29C47.4 28.21 47.45 23.4 43.73 19.5C42.59 18.3 42.27 16.94 43.28 15.86C44.45 14.6 45.95 15.56 46.89 16.43C48.1155 17.5408 49.1021 18.8894 49.7897 20.3937C50.4774 21.898 50.8518 23.5264 50.89 25.18Z" fill="#212121"/>
<path d="M35.4 25.87C35.4 32.87 35.4 39.87 35.4 46.87C35.4 47.73 35.67 48.78 34.59 49.24C33.51 49.7 33.02 48.85 32.36 48.39C28.66 45.88 25 43.32 21.28 40.84C20.8046 40.5715 20.4157 40.173 20.1589 39.6912C19.9021 39.2094 19.788 38.6643 19.83 38.12C19.89 30.0133 19.89 21.91 19.83 13.81C19.768 13.2329 19.8714 12.65 20.1281 12.1295C20.3849 11.6089 20.7843 11.1721 21.28 10.87C25.12 8.32 28.9 5.68 32.71 3.09C33.27 2.7 33.83 2.16 34.61 2.51C35.39 2.86 35.4 3.73 35.4 4.51C35.4 11.63 35.39 18.74 35.4 25.87Z" fill="#212121"/>
<path d="M14 12.4H14.18C14.4505 12.4 14.7184 12.4533 14.9683 12.5568C15.2183 12.6603 15.4454 12.8121 15.6366 13.0034C15.8279 13.1946 15.9797 13.4217 16.0832 13.6717C16.1867 13.9216 16.24 14.1895 16.24 14.46V37.39C16.24 37.6605 16.1867 37.9284 16.0832 38.1783C15.9797 38.4283 15.8279 38.6554 15.6366 38.8466C15.4454 39.0379 15.2183 39.1897 14.9683 39.2932C14.7184 39.3967 14.4505 39.45 14.18 39.45H14C10.8174 39.45 7.76516 38.1857 5.51472 35.9353C3.26428 33.6848 2 30.6326 2 27.45L2 24.39C2 21.2074 3.26428 18.1552 5.51472 15.9047C7.76516 13.6543 10.8174 12.39 14 12.39V12.4Z" fill="#212121"/>
</g>
<path d="M2 2.39706L70.16 49.73" stroke="#212121" stroke-width="4" stroke-linecap="round"/>
<defs>
<clipPath id="clip0_5_22">
<rect width="68.16" height="47.73" fill="white" transform="translate(2 2)"/>
</clipPath>
</defs>
</svg>
