<svg width="47" height="56" viewBox="0 0 47 56" fill="none" xmlns="http://www.w3.org/2000/svg">
<path d="M22.56 42.59C21.54 42.55 20.51 41.36 19.47 39.02C18.7228 37.3339 18.1303 35.5833 17.7 33.79C16.74 33.93 15.17 34.07 12.99 34.21C10.94 34.35 9.37002 34.52 8.28002 34.71C7.68002 36.1233 6.63999 38.2433 5.15999 41.07C4.92973 41.4962 4.58705 41.8511 4.16921 42.0961C3.75137 42.3412 3.27435 42.467 2.79 42.46C2.0804 42.4633 1.39404 42.2073 0.860007 41.74C0.58594 41.5191 0.36599 41.2385 0.21694 40.9196C0.0678914 40.6007 -0.00629912 40.2519 2.1552e-05 39.9C2.1552e-05 39.2333 0.949997 37.0167 2.85 33.25C2.67557 32.9033 2.59295 32.5177 2.61001 32.13C2.65667 31.5233 3.28669 31.0433 4.50002 30.69C6.34002 27.5433 8.39002 24.2767 10.65 20.89C13.9 16.03 15.89 13.6 16.65 13.6C18.07 13.6 19.03 14.45 19.51 16.16C19.77 17.5333 20.1767 19.59 20.73 22.33C21.53 26.0167 22.4967 30.24 23.63 35C23.9183 35.8637 24.2521 36.7115 24.63 37.54C25.0091 38.3184 25.2462 39.1582 25.33 40.02C25.3362 40.3738 25.263 40.7245 25.116 41.0464C24.9689 41.3682 24.7516 41.6531 24.48 41.88C24.2237 42.1207 23.9217 42.3075 23.5919 42.4295C23.2621 42.5514 22.9113 42.606 22.56 42.59ZM15.3 22.87C14.2933 24.5833 12.9 26.9167 11.12 29.87C12.0188 29.708 12.9276 29.6078 13.84 29.57C15.3 29.48 16.21 29.41 16.59 29.35C16.28 27.7 15.85 25.53 15.3 22.87Z" fill="#9E9E9E"/>
<path d="M29.6869 14.373L32.207 15.733C31.967 16.543 26.1469 36.643 37.7369 53.973C38.0313 54.3881 38.4051 54.7407 38.8367 55.0105C39.2683 55.2803 39.7491 55.4618 40.2513 55.5445C40.7534 55.6273 41.2671 55.6097 41.7624 55.4927C42.2577 55.3757 42.7249 55.1617 43.137 54.863C43.3489 54.7189 43.5464 54.5548 43.7269 54.373C44.3817 53.7541 44.8007 52.9266 44.912 52.0325C45.0233 51.1384 44.82 50.2335 44.337 49.473C35.547 36.333 38.4769 22.083 39.1169 19.473L41.6669 20.843C41.9822 21.015 42.3352 21.1062 42.6943 21.1082C43.0535 21.1102 43.4076 21.0231 43.7247 20.8546C44.0419 20.6861 44.3122 20.4415 44.5116 20.1428C44.7109 19.844 44.8331 19.5005 44.8669 19.143L46.3669 2.34296C46.4004 1.92392 46.3115 1.50417 46.111 1.13472C45.9104 0.76527 45.6069 0.462026 45.2372 0.261841C44.8676 0.0616569 44.4477 -0.0268479 44.0287 0.00708049C43.6097 0.0410089 43.2096 0.195907 42.8769 0.452958L29.387 10.823C29.1064 11.0395 28.8847 11.3229 28.7419 11.6472C28.5992 11.9716 28.54 12.3266 28.5699 12.6797C28.5997 13.0328 28.7176 13.3728 28.9127 13.6686C29.1079 13.9644 29.3741 14.2066 29.6869 14.373Z" fill="#9E9E9E"/>
</svg>
