<svg width="50" height="56" viewBox="0 0 50 56" fill="none" xmlns="http://www.w3.org/2000/svg">
<path d="M27.05 42.09C26.3335 42.0962 25.6436 41.8195 25.13 41.32C24.8794 41.0842 24.6807 40.7988 24.5464 40.482C24.4121 40.1653 24.3452 39.824 24.35 39.48C24.35 38.2 24.4099 36.28 24.5299 33.71C24.6499 31.14 24.7199 29.23 24.7199 27.94C24.7199 26.65 24.72 24.39 24.63 21.54C24.54 18.69 24.54 16.54 24.54 15.14C24.6457 14.3282 25.022 13.5758 25.6081 13.0042C26.1941 12.4327 26.9558 12.0753 27.7699 11.99C28.8995 12.2248 29.9881 12.6258 31 13.18C33 14.13 34.2099 14.66 34.5899 14.77C38.2214 15.8925 41.5491 17.8282 44.32 20.43C47.52 23.4633 49.1233 26.82 49.13 30.5C49.1255 32.717 48.554 34.8961 47.4699 36.83C46.4053 38.8249 44.8453 40.5123 42.94 41.73C40.78 43.11 37.75 43.8 33.85 43.8C32.7488 43.7837 31.6526 43.6496 30.58 43.4C29.3379 43.1653 28.1444 42.7224 27.05 42.09ZM37.99 22.33C35.3761 20.9191 32.6699 19.6863 29.89 18.64V37.64C30.4304 37.9734 31.0214 38.2166 31.64 38.36C32.3577 38.5276 33.093 38.6082 33.83 38.6C36.63 38.6 38.63 38.2167 39.83 37.45C40.9951 36.7099 41.9438 35.6749 42.58 34.45C43.2437 33.2506 43.588 31.9008 43.58 30.53C43.6 27.4033 41.7266 24.68 37.9599 22.36L37.99 22.33Z" fill="#9E9E9E"/>
<path d="M17.3503 41.3132L14.8402 39.9532C15.0802 39.1432 20.9002 19.0432 9.31025 1.72324C9.01659 1.30732 8.64338 0.953778 8.21216 0.683075C7.78095 0.412373 7.30031 0.229882 6.7981 0.14618C6.29589 0.0624775 5.78205 0.0792181 5.28635 0.195435C4.79065 0.311652 4.32293 0.525044 3.91025 0.823243C3.6963 0.968363 3.49851 1.13599 3.32026 1.32324C2.66391 1.94087 2.24302 2.76772 2.12989 3.66185C2.01675 4.55598 2.21843 5.46159 2.70026 6.22324C11.5003 19.3532 8.57026 33.6132 7.92026 36.2232L5.38025 34.8432C5.06356 34.6714 4.70923 34.5807 4.34891 34.5793C3.9886 34.5779 3.63356 34.6659 3.31556 34.8353C2.99755 35.0047 2.72648 35.2503 2.52662 35.5501C2.32675 35.8499 2.20432 36.1945 2.17026 36.5532L0.680243 53.3532C0.646736 53.7723 0.735667 54.192 0.936224 54.5615C1.13678 54.9309 1.44035 55.2342 1.81 55.4344C2.17966 55.6345 2.59949 55.723 3.0185 55.6891C3.4375 55.6552 3.83763 55.5003 4.17026 55.2432L17.6603 44.8632C17.9404 44.6459 18.1615 44.3619 18.3034 44.037C18.4454 43.7122 18.5036 43.3569 18.4728 43.0038C18.4419 42.6506 18.323 42.3108 18.1269 42.0155C17.9308 41.7201 17.6638 41.4787 17.3503 41.3132Z" fill="#9E9E9E"/>
</svg>
