<svg width="93" height="25" viewBox="0 0 93 25" fill="none" xmlns="http://www.w3.org/2000/svg">
<g clip-path="url(#clip0_3_2)">
<path d="M8.37 23.65C6.35159 23.7616 4.35336 23.1988 2.68998 22.05C2.17359 21.7136 1.74526 21.2585 1.4408 20.7226C1.13635 20.1868 0.964612 19.5858 0.939981 18.97C0.920586 18.4222 1.11413 17.8882 1.47999 17.48C1.67199 17.2812 1.90426 17.1257 2.16123 17.0239C2.4182 16.9222 2.69393 16.8765 2.96998 16.89C3.37981 16.8894 3.77994 17.0148 4.11619 17.2491C4.45244 17.4834 4.70859 17.8153 4.84998 18.2C5.38998 19.36 6.60999 19.94 8.50999 19.94C10.1455 19.9398 11.7608 19.5778 13.24 18.88C14.82 18.1533 15.61 17.3533 15.61 16.48C15.6571 15.9786 15.5376 15.4757 15.2701 15.0491C15.0025 14.6225 14.6018 14.2959 14.13 14.12C12.7532 13.7606 11.3323 13.599 9.90998 13.64C8.39679 13.6284 6.90106 13.3156 5.50999 12.72C3.75999 11.93 2.9 10.81 2.93 9.33999C2.93 7.49999 3.92998 5.80001 5.87998 4.27001C7.68682 2.77788 9.95668 1.96113 12.3 1.95998C13.4688 2.00113 14.625 2.21686 15.73 2.6C17.43 3.12667 18.28 3.73665 18.28 4.42999C18.279 4.91678 18.0931 5.38506 17.76 5.74001C17.5783 5.94641 17.3532 6.10996 17.1007 6.21889C16.8483 6.32783 16.5748 6.37942 16.3 6.36999C15.6258 6.34226 14.9559 6.24848 14.3 6.08999C13.6439 5.93249 12.9741 5.83872 12.3 5.80999C11.0858 5.81692 9.89151 6.11893 8.81999 6.68999C7.68999 7.26999 7.12 7.91 7.12 8.6C7.1177 8.78158 7.16487 8.96035 7.25648 9.11715C7.34809 9.27395 7.48068 9.40286 7.63999 9.49001C8.11354 9.76716 8.64318 9.93459 9.18998 9.98L12.81 10.18C14.6216 10.2278 16.3718 10.8473 17.81 11.95C18.4804 12.5328 19.009 13.2609 19.3556 14.0788C19.7021 14.8967 19.8575 15.783 19.81 16.67C19.81 19.11 18.4166 20.96 15.63 22.22C13.3391 23.2072 10.8641 23.6947 8.37 23.65Z" fill="#9E9E9E"/>
<path d="M26.28 14.86C26.12 14.86 25.72 14.86 25.09 14.76C25.03 16.09 25 18.26 25 21.29C25.0049 21.529 24.9614 21.7665 24.872 21.9882C24.7826 22.2099 24.6493 22.4112 24.48 22.58C24.1202 22.9271 23.6399 23.121 23.14 23.121C22.6401 23.121 22.1598 22.9271 21.8 22.58C21.6289 22.4121 21.4937 22.2112 21.4026 21.9894C21.3115 21.7677 21.2664 21.5297 21.27 21.29V17.29C21.27 15.83 21.36 13.65 21.55 10.78C21.74 7.90999 21.83 5.67 21.84 4.23C21.84 1.77 22.54 0.600005 23.91 0.700005C24.3463 0.594833 24.7917 0.531214 25.24 0.510002C25.81 0.510002 26.5 0.439995 27.32 0.439995C29.2109 0.457217 31.0443 1.09291 32.54 2.24999C33.3575 2.78578 34.0317 3.51317 34.504 4.36889C34.9763 5.22461 35.2324 6.18275 35.25 7.16C35.2831 8.28609 35.0375 9.40293 34.535 10.4113C34.0326 11.4196 33.2889 12.2882 32.37 12.94C30.6044 14.2283 28.4653 14.9028 26.28 14.86ZM26.99 4.14999H26.19H25.6C25.6 4.58999 25.6 5.25999 25.6 6.14999C25.6 7.19999 25.49 8.83999 25.33 11.06C25.6601 11.1214 25.9944 11.1582 26.33 11.17C27.6376 11.2245 28.928 10.8563 30.01 10.12C30.505 9.79517 30.9083 9.34879 31.1814 8.82354C31.4546 8.29829 31.5883 7.71173 31.57 7.11999C31.5337 6.66586 31.38 6.22897 31.1241 5.85207C30.8682 5.47518 30.5187 5.17122 30.11 4.96999C29.1703 4.39408 28.0813 4.10879 26.98 4.14999H26.99Z" fill="#9E9E9E"/>
<path d="M53.65 23.21C52.9 23.21 52.15 22.3 51.39 20.57C50.8465 19.3241 50.4148 18.0323 50.1 16.71C49.4 16.81 48.25 16.92 46.66 17.02C45.5111 17.0849 44.3663 17.2083 43.23 17.39C42.79 18.39 42.04 20 40.96 22.09C40.7846 22.3937 40.5325 22.646 40.2289 22.8215C39.9252 22.997 39.5808 23.0896 39.23 23.09C38.7115 23.0891 38.2108 22.9009 37.8201 22.56C37.6199 22.3955 37.46 22.1875 37.3525 21.9518C37.2451 21.7161 37.1929 21.4589 37.2 21.2C37.2 20.72 37.89 19.0833 39.27 16.29C39.1459 16.0351 39.0874 15.7532 39.1 15.47C39.1 15.01 39.6 14.66 40.48 14.4C41.8134 12.0733 43.3067 9.66 44.96 7.16C47.33 3.58 48.78 1.77999 49.33 1.77999C50.33 1.77999 51.07 2.41001 51.42 3.67001C51.61 4.67001 51.91 6.2 52.31 8.23C52.89 10.95 53.5967 14.0667 54.43 17.58C54.6343 18.2198 54.8747 18.8474 55.15 19.46C55.4284 20.0344 55.6012 20.6543 55.66 21.29C55.6669 21.5494 55.6157 21.807 55.5102 22.0441C55.4046 22.2811 55.2474 22.4916 55.05 22.66C54.865 22.8403 54.6459 22.9817 54.4055 23.0762C54.1651 23.1706 53.9082 23.2161 53.65 23.21ZM48.35 8.64999C47.6167 9.90999 46.6167 11.6367 45.35 13.83C46.0102 13.705 46.6787 13.6281 47.35 13.6C48.41 13.53 49.08 13.48 49.35 13.44C49.06 12.21 48.75 10.61 48.35 8.64999Z" fill="#9E9E9E"/>
<path d="M72.84 7.67001C72.4236 7.66971 72.0178 7.53948 71.679 7.29748C71.3402 7.05548 71.0853 6.71376 70.95 6.32C70.8506 6.00724 70.6501 5.73639 70.38 5.55001C70.0138 5.46103 69.6363 5.42732 69.26 5.45001C68.0734 5.45001 66.6967 6.37667 65.13 8.23001C62.95 10.83 61.85 13.23 61.85 15.52C61.8241 16.5001 62.183 17.4514 62.85 18.17C63.1601 18.5215 63.5419 18.8024 63.9697 18.9939C64.3975 19.1853 64.8613 19.2829 65.33 19.28C66.3284 19.2631 67.3087 19.0095 68.19 18.54C68.53 18.36 69.25 17.9 70.34 17.15C70.8264 16.7619 71.4053 16.5069 72.02 16.41C72.2911 16.4097 72.5594 16.4645 72.8087 16.571C73.0579 16.6776 73.2829 16.8338 73.47 17.03C73.6599 17.217 73.8072 17.4428 73.9017 17.6919C73.9963 17.9411 74.0359 18.2077 74.0179 18.4736C73.9999 18.7395 73.9246 18.9984 73.7973 19.2325C73.6699 19.4666 73.4934 19.6704 73.28 19.83C71.1016 21.8622 68.2578 23.0317 65.28 23.12C64.2835 23.1251 63.297 22.9213 62.3841 22.5217C61.4712 22.1221 60.6522 21.5356 59.98 20.8C58.6136 19.3842 57.8593 17.4875 57.88 15.52C57.88 12.3467 59.2667 9.10999 62.04 5.80999C64.3933 3.00999 66.8 1.61001 69.26 1.61001C69.68 1.61001 70.05 1.61001 70.39 1.61001C70.6893 1.63281 70.9867 1.67625 71.28 1.74002C71.4755 1.54181 71.7093 1.38551 71.9672 1.28064C72.2251 1.17576 72.5016 1.1245 72.78 1.13C73.78 1.13 74.34 1.68 74.57 2.79C74.7412 3.70653 74.8216 4.6377 74.81 5.57C74.811 6.0322 74.6676 6.48318 74.4 6.86001C74.2309 7.11712 73.9987 7.32657 73.7256 7.46838C73.4525 7.61019 73.1476 7.67961 72.84 7.67001Z" fill="#9E9E9E"/>
<path d="M90.89 4.58998C90.69 4.58796 90.4914 4.55766 90.3 4.49999C88.8445 4.09418 87.341 3.88566 85.83 3.87999C85.0635 3.8809 84.2982 3.93773 83.54 4.05001C82.6647 4.17242 81.7967 4.34265 80.94 4.55999C80.94 5.81999 80.94 7.68999 80.82 10.16C81.35 10.16 83.2 9.95 86.37 9.64C88.17 9.46 89.37 9.36998 89.8 9.36998C90.3294 9.36065 90.843 9.54971 91.24 9.89998C91.4342 10.0786 91.5874 10.2971 91.6892 10.5405C91.7911 10.7838 91.8391 11.0463 91.83 11.31C91.8495 11.5569 91.8173 11.8052 91.7353 12.039C91.6534 12.2728 91.5235 12.4869 91.3541 12.6676C91.1847 12.8483 90.9794 12.9917 90.7514 13.0885C90.5234 13.1854 90.2777 13.2336 90.03 13.23L86.64 13.51C85.29 13.67 83.27 13.85 80.56 14.07C80.49 15.27 80.46 16.24 80.46 16.98C80.46 18.83 80.57 19.89 80.79 20.14C81.01 20.39 81.49 20.33 82.58 20.33H85.23C86.41 20.33 87.3 20.28 87.89 20.28C88.168 20.2695 88.4451 20.2428 88.72 20.2C88.9941 20.15 89.2715 20.1199 89.55 20.11C90.057 20.0999 90.5518 20.266 90.95 20.58C91.1723 20.7547 91.3493 20.9804 91.466 21.2381C91.5826 21.4957 91.6355 21.7776 91.62 22.06C91.6502 22.5317 91.4927 22.9962 91.1817 23.3522C90.8707 23.7081 90.4315 23.9266 89.96 23.96C88.006 24.1957 86.0373 24.286 84.07 24.23C80.9767 24.23 78.9767 23.8133 78.07 22.98C77.1634 22.1467 76.65 20.1467 76.53 16.98C76.53 15.71 76.62 13.81 76.8 11.26C76.98 8.71 77.08 6.82 77.08 5.57C77.0646 5.07752 77.0178 4.58653 76.94 4.09999C76.858 3.61401 76.8112 3.12273 76.8 2.62999C76.8 1.18999 77.4667 0.469989 78.8 0.469989C79.2102 0.465971 79.6116 0.588164 79.95 0.819995C80.9814 0.559645 82.0263 0.35599 83.08 0.20998C84.0106 0.0744594 84.9496 0.00429619 85.89 -1.19396e-05C87.83 -0.064228 89.7662 0.213343 91.61 0.819995C91.9966 0.934981 92.3341 1.17515 92.5694 1.50277C92.8047 1.83038 92.9245 2.22689 92.91 2.62999C92.9122 3.11254 92.7297 3.57764 92.4 3.92998C92.2174 4.15041 91.9857 4.32497 91.7235 4.43959C91.4612 4.55422 91.1757 4.60571 90.89 4.58998Z" fill="#9E9E9E"/>
</g>
<defs>
<clipPath id="clip0_3_2">
<rect width="91.91" height="24.19" fill="white" transform="translate(0.940002)"/>
</clipPath>
</defs>
</svg>
