<svg width="79" height="103" viewBox="0 0 79 103" fill="none" xmlns="http://www.w3.org/2000/svg">
<path d="M66.33 75.79C60.8567 77.83 53.9533 78.85 45.62 78.85C44.9015 78.8395 44.1933 78.6773 43.5419 78.374C42.8905 78.0706 42.3105 77.6331 41.84 77.09C40.809 76.1061 40.2087 74.7546 40.17 73.33V36.03C40.1 34.43 40.04 32.84 39.99 31.24C39.9081 29.7144 39.9684 28.1844 40.17 26.67C40.5033 24.47 42.5533 23.1367 46.32 22.67C49.2286 22.0369 52.2056 21.7749 55.18 21.89C59.7693 21.943 64.2246 23.4444 67.91 26.18C72.67 29.5133 75.0466 33.6733 75.04 38.66C75.1156 41.0194 74.6108 43.3612 73.57 45.48C72.5345 47.3122 71.1799 48.9445 69.57 50.3C71.9258 51.4863 73.9783 53.1968 75.57 55.3C77.396 57.3532 78.4559 59.9747 78.57 62.72C78.57 65.84 76.87 68.7933 73.47 71.58C71.3334 73.3604 68.9221 74.7822 66.33 75.79ZM55.18 31.46C52.18 31.46 50.34 31.46 49.73 31.53V38.98V46.37C51.3254 46.6025 52.9393 46.6829 54.55 46.61C61.7166 46.05 65.3033 43.4133 65.31 38.7C65.31 37.04 64.25 35.43 62.14 33.89C60.1506 32.3362 57.7042 31.482 55.18 31.46ZM59.29 56.32C57.16 56.32 53.97 56.23 49.73 56.07V69.22C54.1756 68.9341 58.5758 68.156 62.85 66.9C66.97 65.7267 69.0067 64.46 68.96 63.1C68.8933 61.3 67.56 59.6933 64.96 58.28C63.2213 57.2515 61.2927 56.5848 59.29 56.32Z" fill="#9E9E9E"/>
<path d="M30.6189 76.0907L26.0689 73.6106C26.5089 72.1306 37.0189 35.3706 16.0689 3.69064C15.5445 2.93256 14.8734 2.28741 14.0952 1.79338C13.317 1.29934 12.4476 0.96647 11.5385 0.814481C10.6294 0.662491 9.69894 0.694469 8.80238 0.908521C7.90582 1.12257 7.06132 1.51435 6.31889 2.06065C4.77794 3.12557 3.69748 4.73456 3.29487 6.5639C2.89227 8.39324 3.19742 10.3072 4.14891 11.9207C20.0289 35.9207 14.7389 62.0107 13.5689 66.8107L8.96892 64.3006C8.39667 63.9891 7.75579 63.8252 7.10426 63.8236C6.45273 63.822 5.8111 63.9829 5.23735 64.2916C4.6636 64.6003 4.17585 65.0471 3.81819 65.5917C3.46053 66.1363 3.24426 66.7615 3.18892 67.4106L0.478897 98.1406C0.412068 98.9008 0.567998 99.664 0.927656 100.337C1.28731 101.01 1.83514 101.564 2.50426 101.931C3.17337 102.298 3.93484 102.462 4.69569 102.403C5.45655 102.345 6.18388 102.066 6.78889 101.601L31.1489 82.6007C31.6591 82.2019 32.0622 81.6826 32.3221 81.0896C32.582 80.4965 32.6906 79.8482 32.638 79.2028C32.5855 78.5575 32.3735 77.9352 32.0211 77.392C31.6687 76.8488 31.1868 76.4017 30.6189 76.0907Z" fill="#9E9E9E"/>
</svg>
