<svg width="298" height="60" viewBox="0 0 298 60" fill="none" xmlns="http://www.w3.org/2000/svg">
<g clip-path="url(#clip0_1_11)">
<path d="M61.7597 6.54001C61.7597 9.92001 59.2663 11.48 54.2796 11.22C54.0196 14.62 53.8897 19.2867 53.8897 25.22C53.8897 26.43 54.0097 29.49 54.2597 34.37C54.5097 39.25 54.6297 43.56 54.6297 47.26C54.6603 48.3789 54.7639 49.4946 54.9396 50.6C55.1227 51.7047 55.2296 52.8207 55.2597 53.94C55.2758 54.563 55.1573 55.1821 54.9122 55.7551C54.6672 56.3281 54.3013 56.8414 53.8396 57.26C52.8877 58.1363 51.6332 58.6094 50.3396 58.58C47.4796 58.58 45.863 57.1367 45.4897 54.25C45.1353 51.9311 44.9116 49.594 44.8197 47.25C44.8197 43.6233 44.703 39.44 44.4696 34.7C44.2296 29.96 44.1196 26.8 44.1196 25.21C44.1196 19.07 44.2363 14.3467 44.4696 11.04C41.7455 11.26 39.012 11.3401 36.2796 11.28C30.4863 11.28 24.8496 11.1867 19.3696 11C19.4596 11.92 19.5796 13.3 19.7196 15.15C20.093 26.6433 20.2796 32.8533 20.2796 33.78C20.2796 34.89 20.2097 36.42 20.0697 38.39C19.9097 40.55 19.8097 42.08 19.7897 42.99C19.7697 43.9 19.7897 45.09 19.7897 46.55C19.7897 48.49 19.7897 49.69 19.7897 50.13C19.8847 51.9855 19.7096 53.8449 19.2697 55.65C18.9871 56.5902 18.387 57.4033 17.5718 57.9504C16.7566 58.4975 15.7769 58.7448 14.7997 58.65C13.5089 58.6848 12.2547 58.219 11.2997 57.35C10.8369 56.9366 10.47 56.427 10.2248 55.857C9.97949 55.287 9.8617 54.6703 9.87965 54.05C9.87965 48.47 9.90299 44.73 9.94966 42.83C9.94966 41.94 10.0697 40.44 10.2297 38.33C10.3697 36.41 10.4396 34.91 10.4396 33.83C10.4396 32.99 10.253 26.8633 9.87965 15.45C9.87965 15.38 9.74966 13.85 9.48966 10.88H5.76966C5.12711 10.9024 4.48655 10.7963 3.88554 10.5679C3.28453 10.3395 2.73517 9.9935 2.26966 9.55002C1.81651 9.12205 1.45855 8.60344 1.21907 8.02798C0.979579 7.45253 0.86392 6.83309 0.879649 6.20999C0.879649 3.00332 3.33965 1.39668 8.25965 1.39001H9.75965H11.0596C12.9096 1.39001 15.6696 1.47002 19.3396 1.61002C23.0096 1.75002 25.7696 1.82001 27.6196 1.82001L56.8997 1.89001C57.545 1.86937 58.1881 1.97619 58.7921 2.20441C59.3961 2.43263 59.9492 2.77775 60.4197 3.22C60.8627 3.64894 61.2109 4.16605 61.4417 4.73792C61.6725 5.30978 61.7808 5.92369 61.7597 6.54001Z" fill="#9E9E9E"/>
<path d="M78.5696 36.81C78.1796 36.81 77.1896 36.73 75.6196 36.57C75.4796 39.85 75.4096 45.24 75.4096 52.74C75.4152 53.3432 75.2992 53.9414 75.0685 54.4988C74.8378 55.0562 74.4971 55.5614 74.0668 55.9842C73.6366 56.407 73.1255 56.7388 72.5642 56.9597C72.0028 57.1806 71.4027 57.2861 70.7997 57.27C70.1846 57.2882 69.5724 57.1795 69.0012 56.9507C68.43 56.7219 67.912 56.3778 67.4797 55.94C67.0547 55.5236 66.7186 55.0253 66.4917 54.4753C66.2649 53.9252 66.1519 53.3349 66.1596 52.74V42.93C66.1596 39.3033 66.3963 33.9233 66.8696 26.79C67.3096 19.55 67.543 14.15 67.5696 10.59C67.5696 4.49 69.2797 1.57002 72.6997 1.83002C73.7869 1.57557 74.8946 1.41829 76.0097 1.36002C77.4097 1.25002 79.1197 1.20001 81.1397 1.20001C85.8245 1.23225 90.3698 2.79884 94.0797 5.66C98.553 8.99334 100.79 13.05 100.79 17.83C100.875 20.6214 100.269 23.3905 99.025 25.8908C97.781 28.3911 95.9378 30.5448 93.6596 32.16C89.2726 35.3167 83.9725 36.9499 78.5696 36.81ZM80.3297 10.27H78.3297C77.7497 10.27 77.2696 10.27 76.8696 10.35C76.8696 11.46 76.8696 13.11 76.8696 15.35C76.823 17.95 76.5997 22.0067 76.1997 27.52C76.9904 27.6582 77.7883 27.7517 78.5896 27.8C81.8254 27.9232 85.0163 27.0125 87.6997 25.2C88.9096 24.398 89.8983 23.3044 90.5747 22.0199C91.251 20.7355 91.5931 19.3015 91.5696 17.85C91.5696 15.85 90.363 14.08 87.9497 12.54C85.6889 11.0489 83.0379 10.2591 80.3297 10.27Z" fill="#9E9E9E"/>
<path d="M130.04 58.57C123.609 58.7334 117.329 56.6069 112.32 52.57C109.822 50.606 107.816 48.0866 106.462 45.2119C105.108 42.3373 104.443 39.1866 104.52 36.01C104.497 28.1084 107.136 20.4293 112.01 14.21C117.61 6.84332 124.663 3.16 133.17 3.16C141.35 3.16 147.48 5.03333 151.56 8.78C155.64 12.5267 157.68 18.1633 157.68 25.69C157.735 33.4653 155.311 41.056 150.76 47.36C145.48 54.84 138.573 58.5767 130.04 58.57ZM133.17 12.7C127.95 12.7 123.473 15.23 119.74 20.29C116.313 24.8233 114.472 30.3574 114.5 36.04C114.458 37.8672 114.848 39.6784 115.636 41.3271C116.425 42.9759 117.591 44.4157 119.04 45.53C122.183 47.9511 126.075 49.1963 130.04 49.05C135.2 49.05 139.503 46.5167 142.95 41.45C146.118 36.8153 147.774 31.3135 147.69 25.7C147.69 20.78 146.59 17.36 144.39 15.44C142.19 13.52 138.45 12.6067 133.17 12.7Z" fill="#9E9E9E"/>
<path d="M179.76 56.92C178.66 56.92 177.15 56.87 175.22 56.78C173.02 56.69 171.51 56.63 170.69 56.61C170.185 56.7485 169.663 56.8191 169.14 56.82C165.7 56.82 163.976 54.4034 163.97 49.57C163.97 48.9367 164.136 46.9567 164.47 43.63C164.91 39.23 165.13 35.1067 165.13 31.26C165.13 29.01 165.02 25.66 164.78 21.2C164.54 16.74 164.43 13.4 164.43 11.15C164.43 8.29001 164.663 6.41333 165.13 5.52C165.95 3.95 167.81 3.17003 170.69 3.17003C172.45 3.17003 175.116 3.12669 178.69 3.04002C182.263 2.95335 184.93 2.91336 186.69 2.92003H195.55C196.191 2.89905 196.831 3.00483 197.431 3.23134C198.032 3.45784 198.582 3.80061 199.05 4.24C199.49 4.6736 199.839 5.19045 200.078 5.76042C200.317 6.33039 200.44 6.9421 200.44 7.56001C200.44 8.17791 200.317 8.78966 200.078 9.35963C199.839 9.9296 199.49 10.4464 199.05 10.88C198.582 11.3194 198.032 11.6622 197.431 11.8887C196.831 12.1152 196.191 12.221 195.55 12.2C192.99 12.2 185.96 12.2834 174.46 12.45C174.57 15.38 174.75 18.58 174.98 22.05C176.2 22 177.21 21.98 177.98 21.98C185.433 21.98 190.916 23.0934 194.43 25.32C198.856 28.08 201.07 32.9433 201.07 39.91C201.07 45.81 198.913 50.2267 194.6 53.16C190.9 55.6733 185.953 56.9267 179.76 56.92ZM179.44 31.16C178.29 31.16 176.82 31.22 175.04 31.33C175.04 31.85 175.04 32.39 175.04 32.95C175.04 35.4834 174.77 40.3367 174.23 47.51C176.43 47.51 178.23 47.58 179.68 47.58C187.34 47.58 191.173 45.0133 191.18 39.88C191.18 36.3067 190.18 33.9134 188.18 32.7C186.646 31.6734 183.733 31.16 179.44 31.16Z" fill="#9E9E9E"/>
<path d="M242.4 11.36C241.902 11.3562 241.408 11.2855 240.93 11.15C237.321 10.1447 233.595 9.62346 229.85 9.60001C227.956 9.61002 226.064 9.75033 224.19 10.02C222.026 10.3329 219.88 10.7568 217.76 11.29C217.76 14.41 217.653 19.04 217.44 25.18C218.773 25.08 223.356 24.6433 231.19 23.87C235.663 23.43 238.5 23.21 239.7 23.21C241.008 23.1841 242.276 23.6559 243.25 24.53C243.737 24.9674 244.121 25.5071 244.375 26.1104C244.63 26.7138 244.747 27.3659 244.72 28.02C244.72 30.8067 243.233 32.39 240.26 32.77C238.38 32.91 235.58 33.1433 231.86 33.47C228.526 33.85 223.51 34.3067 216.81 34.84C216.643 37.82 216.56 40.2234 216.56 42.05C216.56 46.64 216.83 49.26 217.37 49.89C217.63 50.2 219.11 50.35 221.8 50.35C223.25 50.35 225.45 50.35 228.38 50.24C231.31 50.13 233.5 50.14 234.95 50.14C235.644 50.1186 236.335 50.0484 237.02 49.93C237.68 49.8085 238.349 49.735 239.02 49.71C240.28 49.6779 241.511 50.0884 242.5 50.87C243.046 51.3049 243.482 51.8636 243.771 52.4999C244.059 53.1362 244.193 53.8321 244.16 54.53C244.16 57.16 242.78 58.73 240.04 59.24C237.7 59.6933 232.836 59.9167 225.45 59.91C217.81 59.91 212.83 58.88 210.51 56.82C208.01 54.54 206.76 49.6167 206.76 42.05C206.76 38.91 206.986 34.1933 207.44 27.9C207.893 21.6067 208.123 16.9 208.13 13.78C208.085 12.5666 207.961 11.3574 207.76 10.16C207.56 8.95614 207.443 7.73992 207.41 6.51999C207.41 2.95999 209.05 1.17001 212.33 1.17001C213.347 1.16655 214.341 1.47355 215.18 2.05002C217.734 1.40227 220.321 0.891509 222.93 0.519989C225.229 0.190807 227.547 0.0204238 229.87 0.0100098C235.776 0.0100098 240.5 0.676676 244.04 2.01001C245 2.28658 245.841 2.87722 246.426 3.68753C247.012 4.49784 247.309 5.48105 247.27 6.48001C247.277 7.67791 246.826 8.83324 246.01 9.70999C245.572 10.2404 245.02 10.6646 244.395 10.9504C243.769 11.2362 243.087 11.3763 242.4 11.36Z" fill="#9E9E9E"/>
<path d="M291.97 57.16C288.736 57.16 287.12 54.7367 287.12 49.89C287.12 47.8167 287.156 44.7034 287.23 40.55C287.303 36.3967 287.336 33.2867 287.33 31.22C287.33 28.9867 287.273 25.8567 287.16 21.83C287.04 17.5034 286.98 14.3867 286.98 12.48H284.17C282.55 12.48 280.17 12.43 276.89 12.32C273.61 12.21 271.23 12.16 269.61 12.16C269.03 12.16 268.37 12.16 267.61 12.16C267.896 15.16 268.04 18.5233 268.04 22.25C268.04 24.3567 267.973 27.5267 267.84 31.76C267.706 35.9933 267.643 39.1633 267.65 41.27C267.65 46.3833 266.723 50.1567 264.87 52.59C262.65 55.5367 258.83 57.0133 253.41 57.02C252.77 57.0362 252.133 56.9262 251.536 56.6963C250.939 56.4664 250.393 56.121 249.93 55.68C249.471 55.2554 249.108 54.7379 248.865 54.162C248.622 53.5861 248.504 52.9649 248.52 52.34C248.52 50.47 249.11 49.21 250.28 48.58C251.6 48.1208 252.969 47.8155 254.36 47.67C255.248 47.5769 256.072 47.1647 256.68 46.51C257.48 45.51 257.88 43.78 257.88 41.27C257.88 39.1567 257.943 35.9867 258.07 31.76C258.196 27.5333 258.26 24.3633 258.26 22.25C258.302 18.0537 258.045 13.8597 257.49 9.70002C257.092 9.00246 256.885 8.21273 256.89 7.41001C256.881 6.79556 256.997 6.18575 257.233 5.6182C257.469 5.05065 257.818 4.53739 258.26 4.11002C258.71 3.65796 259.249 3.30315 259.843 3.06751C260.436 2.83187 261.071 2.72039 261.71 2.74C262.58 2.74 263.88 2.74002 265.63 2.89002C267.38 3.04002 268.69 3.05002 269.63 3.05002H291.85C293.162 3.03316 294.43 3.52399 295.39 4.42002C295.863 4.83691 296.242 5.35108 296.499 5.92747C296.756 6.50385 296.886 7.12891 296.88 7.76002C296.88 12.36 296.973 19.2767 297.16 28.51C297.346 37.7433 297.44 44.6567 297.44 49.25C297.426 54.5233 295.603 57.16 291.97 57.16Z" fill="#9E9E9E"/>
</g>
<defs>
<clipPath id="clip0_1_11">
<rect width="296.47" height="59.91" fill="white" transform="translate(0.949646)"/>
</clipPath>
</defs>
</svg>
