<svg width="85" height="103" viewBox="0 0 85 103" fill="none" xmlns="http://www.w3.org/2000/svg">
<path d="M25.71 43.29C30.1633 43.29 33.7834 44.4867 36.57 46.88C39.55 49.4067 41.04 52.91 41.04 57.39C41.04 66.01 35.79 70.6967 25.29 71.45V76.76C28.9034 76.6933 32.3133 76.6567 35.52 76.65C36.0775 76.633 36.6324 76.7327 37.149 76.9428C37.6656 77.1529 38.1326 77.4687 38.52 77.87C38.9078 78.2654 39.2121 78.7347 39.4148 79.2501C39.6175 79.7655 39.7145 80.3164 39.7 80.87C39.7069 81.4203 39.6029 81.9663 39.3942 82.4755C39.1856 82.9847 38.8765 83.4467 38.4855 83.834C38.0945 84.2213 37.6296 84.5259 37.1184 84.7296C36.6072 84.9334 36.0602 85.0321 35.51 85.02C34.2 85.02 32.23 85.02 29.61 85.1C26.99 85.18 25.01 85.19 23.7 85.19C21.3754 85.2557 19.0574 85.4695 16.76 85.83C14.442 86.1853 12.1042 86.3957 9.76002 86.46C9.1959 86.4876 8.63204 86.4004 8.10264 86.2036C7.57325 86.0068 7.08934 85.7044 6.68031 85.3149C6.27127 84.9255 5.94564 84.457 5.72312 83.9378C5.50061 83.4187 5.38588 82.8598 5.38588 82.295C5.38588 81.7302 5.50061 81.1713 5.72312 80.6522C5.94564 80.133 6.27127 79.6645 6.68031 79.2751C7.08934 78.8856 7.57325 78.5832 8.10264 78.3864C8.63204 78.1896 9.1959 78.1024 9.76002 78.13C12.1045 78.0637 14.4424 77.85 16.76 77.49C16.76 75.88 16.71 73.94 16.69 71.69H15.81C12.2702 71.8126 8.77863 70.8419 5.81001 68.91C4.25233 67.9068 2.98481 66.5127 2.13383 64.8669C1.28285 63.2211 0.878128 61.381 0.960002 59.53C0.960002 54.49 2.55333 50.7733 5.74 48.38C8.06 46.6533 11.8667 45.32 17.16 44.38C17.23 43.27 17.31 42.17 17.41 41.07L9.01002 41.32C8.45372 41.3281 7.90146 41.2243 7.38609 41.0147C6.87072 40.8051 6.40276 40.4941 6.01002 40.1C5.60695 39.7135 5.28925 39.2469 5.0774 38.7302C4.86556 38.2135 4.76426 37.6582 4.78001 37.1C4.78001 34.59 6.11001 33.21 8.78001 32.95C10.8467 32.7633 14.41 32.67 19.47 32.67C25.3937 32.7785 31.3036 33.2829 37.16 34.18C37.687 34.2005 38.2042 34.3288 38.6798 34.5569C39.1553 34.785 39.579 35.1082 39.9248 35.5064C40.2705 35.9047 40.531 36.3696 40.6902 36.8724C40.8493 37.3752 40.9037 37.9053 40.85 38.43C40.8761 39.0243 40.7589 39.6162 40.5083 40.1557C40.2577 40.6952 39.881 41.1666 39.41 41.53C38.5877 42.181 37.5688 42.5336 36.52 42.53C35.3467 42.53 31.7967 42.1567 25.87 41.41C25.8 42.03 25.76 42.66 25.71 43.29ZM16.85 51.41C10.9367 51.41 7.98333 54.1067 7.99 59.5C7.99 60.9333 8.81002 62.1633 10.45 63.19C12.0666 64.1838 13.9326 64.6971 15.83 64.67H16.67V60.49C16.67 57.47 16.73 54.44 16.85 51.41ZM26.03 50.29C25.819 50.3369 25.6052 50.3703 25.39 50.39C25.39 52.85 25.31 55.99 25.29 59.81V64.56C31.1234 64.0867 34.04 61.6967 34.04 57.39C34.0534 52.65 31.3933 50.2833 26.06 50.29H26.03Z" fill="#9E9E9E"/>
<path d="M54.592 26.9308L59.132 29.4108C58.702 30.8908 48.192 67.6508 69.132 99.3308C69.7419 100.164 70.5265 100.853 71.4308 101.351C72.3351 101.848 73.3373 102.142 74.3671 102.212C75.397 102.281 76.4296 102.125 77.3926 101.753C78.3557 101.382 79.2257 100.804 79.942 100.061C81.1301 98.9255 81.8896 97.4145 82.0919 95.7836C82.2941 94.1527 81.9268 92.502 81.0521 91.1108C65.1621 67.1108 70.4621 41.0208 71.6221 36.2108L76.2321 38.7208C76.8043 39.0323 77.4451 39.1963 78.0967 39.1979C78.7482 39.1995 79.3899 39.0386 79.9636 38.7299C80.5374 38.4212 81.0251 37.9743 81.3827 37.4297C81.7404 36.8852 81.9567 36.26 82.012 35.6108L84.722 4.88083C84.7885 4.11977 84.6317 3.35585 84.2707 2.68252C83.9098 2.00919 83.3605 1.45565 82.6899 1.08961C82.0194 0.723569 81.2567 0.560901 80.4952 0.621502C79.7336 0.682104 79.0063 0.963344 78.402 1.43083L54.0521 20.4308C53.5445 20.8307 53.144 21.35 52.8862 21.9425C52.6285 22.535 52.5216 23.1821 52.5751 23.826C52.6286 24.4699 52.8408 25.0904 53.1927 25.6323C53.5447 26.1741 54.0255 26.6202 54.592 26.9308Z" fill="#9E9E9E"/>
</svg>
