<svg width="89" height="88" viewBox="0 0 89 88" fill="none" xmlns="http://www.w3.org/2000/svg">
<path d="M69.8817 43.9099C67.6862 43.5481 65.6202 42.6288 63.8817 41.24C62.1455 39.8331 60.7735 38.029 59.8817 35.98C58.695 33.2559 58.4282 30.2194 59.1217 27.3301C63.5217 8.69008 45.9515 1.3301 45.4615 1.1001C46.4592 5.73776 46.8991 10.4779 46.7716 15.22C46.6235 18.2573 45.6483 21.1964 43.9515 23.72C42.2552 26.2447 39.9192 28.274 37.1818 29.6001C33.8333 31.2295 30.0425 31.7142 26.3917 30.98C8.39172 27.35 1.27167 44.3501 1.08167 44.8301C1.46167 44.7501 10.7817 42.6301 18.6617 43.8301C20.8597 44.19 22.9269 45.1133 24.6617 46.51C26.4002 47.9146 27.7727 49.7194 28.6617 51.77C29.8435 54.4954 30.1101 57.5302 29.4218 60.4199C25.0218 79.0599 42.5917 86.4199 43.0817 86.6399C42.0781 82.0065 41.6382 77.269 41.7716 72.53C41.9197 69.4927 42.8949 66.5536 44.5917 64.03C46.2845 61.4997 48.6215 59.4664 51.3617 58.1399C54.7113 56.5139 58.5021 56.0327 62.1517 56.77C80.1517 60.39 87.2715 43.3899 87.4615 42.9099C87.0815 43.0299 77.7617 45.1599 69.8817 43.9099ZM44.2316 51.26C42.2769 51.26 40.4025 50.4835 39.0204 49.1013C37.6382 47.7192 36.8617 45.8445 36.8617 43.8899C36.8617 42.9225 37.0525 41.9647 37.423 41.071C37.7935 40.1774 38.3364 39.3657 39.0209 38.6821C39.7054 37.9986 40.5179 37.4567 41.412 37.0874C42.3061 36.7181 43.2642 36.5287 44.2316 36.53C45.1989 36.5287 46.1573 36.7181 47.0514 37.0874C47.9455 37.4567 48.758 37.9986 49.4425 38.6821C50.127 39.3657 50.6699 40.1774 51.0404 41.071C51.4109 41.9647 51.6017 42.9225 51.6017 43.8899C51.6017 45.8445 50.8251 47.7192 49.443 49.1013C48.0609 50.4835 46.1862 51.26 44.2316 51.26Z" fill="#E1F5FE" stroke="#212121" stroke-miterlimit="10"/>
</svg>
