<svg width="89" height="88" viewBox="0 0 89 88" fill="none" xmlns="http://www.w3.org/2000/svg">
<path d="M70.4297 43.6301C68.2341 43.2683 66.1682 42.3489 64.4297 40.9601C62.6935 39.5532 61.3215 37.7491 60.4297 35.7001C59.243 32.976 58.9764 29.9394 59.6699 27.05C64.0699 8.41005 46.4998 1.05007 46.0098 0.820068C47.0075 5.45773 47.4473 10.198 47.3198 14.9401C47.1717 17.9774 46.1968 20.9165 44.5 23.4401C42.7844 25.983 40.419 28.0202 37.6499 29.3401C34.3015 30.9694 30.5106 31.4543 26.8599 30.7201C8.85986 27.0901 1.7398 44.0901 1.5498 44.5701C1.9298 44.4901 11.2499 42.3701 19.1299 43.5701C21.3278 43.93 23.395 44.8534 25.1299 46.2501C26.8684 47.6548 28.2408 49.4595 29.1299 51.5101C30.3116 54.2355 30.5785 57.2704 29.8901 60.16C25.4901 78.8 43.0598 86.1601 43.5498 86.3801C42.5462 81.7468 42.1063 77.0091 42.2397 72.2701C42.3878 69.2328 43.3633 66.2937 45.0601 63.7701C46.7529 61.2398 49.0899 59.2066 51.8301 57.8801C55.1797 56.2542 58.9705 55.7729 62.6201 56.5101C80.6201 60.1301 87.7397 43.1301 87.9297 42.6501C87.6497 42.7501 78.3097 44.8801 70.4297 43.6301ZM44.7798 50.9801C42.8251 50.9801 40.9505 50.2036 39.5684 48.8214C38.1862 47.4393 37.4097 45.5648 37.4097 43.6101C37.4097 42.6427 37.6007 41.6849 37.9712 40.7913C38.3417 39.8977 38.8848 39.0858 39.5693 38.4022C40.2538 37.7187 41.0663 37.1768 41.9604 36.8075C42.8546 36.4382 43.8124 36.2488 44.7798 36.2501C45.7472 36.2488 46.7055 36.4382 47.5996 36.8075C48.4937 37.1768 49.3062 37.7187 49.9907 38.4022C50.6752 39.0858 51.2184 39.8977 51.5889 40.7913C51.9594 41.6849 52.1499 42.6427 52.1499 43.6101C52.1499 45.5648 51.3734 47.4393 49.9912 48.8214C48.6091 50.2036 46.7344 50.9801 44.7798 50.9801Z" fill="black" stroke="#212121" stroke-miterlimit="10"/>
</svg>
